<svg width="445" height="311" viewBox="0 0 445 311" fill="none" xmlns="http://www.w3.org/2000/svg">
<rect width="445" height="265" rx="66" fill="url(#paint0_linear_7_2)"/>
<rect x="104" y="277" width="238" height="34" rx="17" fill="url(#paint1_linear_7_2)"/>
<path d="M68.0658 118.371C66.0241 118.371 64.1921 118.736 62.5697 119.465C60.9655 120.176 59.5983 121.215 58.4681 122.582C57.3561 123.949 56.4994 125.599 55.8978 127.531C55.2962 129.445 54.9955 131.605 54.9955 134.012C54.9955 137.22 55.4694 140 56.4173 142.352C57.3835 144.685 58.8236 146.49 60.7377 147.766C62.6517 149.023 65.0671 149.652 67.9837 149.652C69.7155 149.652 71.3744 149.497 72.9603 149.188C74.5645 148.859 76.1686 148.431 77.7728 147.902V152.824C76.2416 153.408 74.6556 153.836 73.015 154.109C71.3744 154.401 69.4603 154.547 67.2728 154.547C63.2077 154.547 59.8171 153.699 57.1009 152.004C54.403 150.309 52.3796 147.93 51.0306 144.867C49.6999 141.786 49.0345 138.159 49.0345 133.984C49.0345 130.958 49.4538 128.197 50.2923 125.699C51.1491 123.184 52.3796 121.014 53.9837 119.191C55.6061 117.35 57.6022 115.938 59.972 114.953C62.3418 113.951 65.058 113.449 68.1205 113.449C70.1257 113.449 72.0853 113.668 73.9994 114.105C75.9134 114.525 77.6726 115.126 79.2767 115.91L77.1712 120.668C75.8223 120.048 74.3913 119.51 72.8783 119.055C71.3653 118.599 69.7611 118.371 68.0658 118.371ZM132.405 114.023V139.891C132.405 142.698 131.821 145.204 130.655 147.41C129.506 149.616 127.756 151.357 125.405 152.633C123.071 153.909 120.136 154.547 116.6 154.547C111.569 154.547 107.731 153.207 105.088 150.527C102.463 147.829 101.151 144.247 101.151 139.781V114.023H106.865V139.535C106.865 142.889 107.704 145.423 109.381 147.137C111.058 148.832 113.546 149.68 116.846 149.68C119.143 149.68 121.011 149.27 122.451 148.449C123.892 147.629 124.958 146.462 125.651 144.949C126.362 143.418 126.717 141.613 126.717 139.535V114.023H132.405ZM157.888 114.023H169.509C174.595 114.023 178.423 114.771 180.993 116.266C183.582 117.76 184.876 120.322 184.876 123.949C184.876 125.499 184.594 126.893 184.028 128.133C183.463 129.354 182.643 130.366 181.568 131.168C180.51 131.952 179.198 132.49 177.63 132.781V133.055C179.252 133.328 180.702 133.82 181.978 134.531C183.254 135.242 184.256 136.254 184.985 137.566C185.733 138.861 186.107 140.529 186.107 142.57C186.107 145.013 185.523 147.091 184.357 148.805C183.208 150.5 181.577 151.794 179.462 152.688C177.366 153.562 174.868 154 171.97 154H157.888V114.023ZM163.575 130.812H170.493C173.683 130.812 175.889 130.293 177.11 129.254C178.35 128.197 178.97 126.665 178.97 124.66C178.97 122.582 178.241 121.087 176.782 120.176C175.324 119.264 173 118.809 169.81 118.809H163.575V130.812ZM163.575 135.488V149.188H171.122C174.403 149.188 176.709 148.549 178.04 147.273C179.389 145.997 180.064 144.275 180.064 142.105C180.064 140.738 179.763 139.562 179.161 138.578C178.56 137.594 177.575 136.837 176.208 136.309C174.859 135.762 173.036 135.488 170.739 135.488H163.575ZM244.703 133.957C244.703 137.038 244.311 139.845 243.527 142.379C242.743 144.895 241.577 147.064 240.027 148.887C238.496 150.691 236.573 152.086 234.258 153.07C231.961 154.055 229.272 154.547 226.191 154.547C223.038 154.547 220.294 154.055 217.961 153.07C215.646 152.086 213.723 150.682 212.191 148.859C210.66 147.036 209.512 144.858 208.746 142.324C207.98 139.79 207.598 136.983 207.598 133.902C207.598 129.801 208.272 126.21 209.621 123.129C210.988 120.048 213.048 117.66 215.801 115.965C218.572 114.251 222.053 113.395 226.246 113.395C230.311 113.395 233.711 114.242 236.445 115.938C239.18 117.633 241.24 120.021 242.625 123.102C244.01 126.164 244.703 129.783 244.703 133.957ZM213.613 133.957C213.613 137.184 214.06 139.973 214.953 142.324C215.846 144.676 217.223 146.49 219.082 147.766C220.941 149.042 223.311 149.68 226.191 149.68C229.09 149.68 231.46 149.042 233.301 147.766C235.142 146.49 236.5 144.676 237.375 142.324C238.25 139.973 238.688 137.184 238.688 133.957C238.688 129.072 237.685 125.243 235.68 122.473C233.693 119.702 230.548 118.316 226.246 118.316C223.348 118.316 220.969 118.945 219.109 120.203C217.25 121.461 215.865 123.257 214.953 125.59C214.06 127.923 213.613 130.712 213.613 133.957ZM303.682 133.957C303.682 137.038 303.291 139.845 302.507 142.379C301.723 144.895 300.556 147.064 299.007 148.887C297.475 150.691 295.552 152.086 293.237 153.07C290.94 154.055 288.252 154.547 285.171 154.547C282.017 154.547 279.274 154.055 276.94 153.07C274.625 152.086 272.702 150.682 271.171 148.859C269.64 147.036 268.491 144.858 267.725 142.324C266.96 139.79 266.577 136.983 266.577 133.902C266.577 129.801 267.252 126.21 268.6 123.129C269.968 120.048 272.028 117.66 274.78 115.965C277.551 114.251 281.033 113.395 285.225 113.395C289.291 113.395 292.69 114.242 295.425 115.938C298.159 117.633 300.219 120.021 301.604 123.102C302.99 126.164 303.682 129.783 303.682 133.957ZM272.593 133.957C272.593 137.184 273.039 139.973 273.932 142.324C274.826 144.676 276.202 146.49 278.061 147.766C279.921 149.042 282.291 149.68 285.171 149.68C288.069 149.68 290.439 149.042 292.28 147.766C294.121 146.49 295.479 144.676 296.354 142.324C297.229 139.973 297.667 137.184 297.667 133.957C297.667 129.072 296.664 125.243 294.659 122.473C292.672 119.702 289.528 118.316 285.225 118.316C282.327 118.316 279.948 118.945 278.089 120.203C276.229 121.461 274.844 123.257 273.932 125.59C273.039 127.923 272.593 130.712 272.593 133.957ZM350.385 143.227C350.385 145.596 349.801 147.629 348.635 149.324C347.468 151.02 345.809 152.314 343.658 153.207C341.525 154.1 338.991 154.547 336.056 154.547C334.58 154.547 333.167 154.465 331.818 154.301C330.487 154.155 329.248 153.936 328.099 153.645C326.951 153.335 325.912 152.961 324.982 152.523V147.137C326.495 147.775 328.245 148.367 330.232 148.914C332.219 149.443 334.27 149.707 336.385 149.707C338.226 149.707 339.757 149.461 340.978 148.969C342.218 148.477 343.148 147.775 343.767 146.863C344.405 145.952 344.724 144.876 344.724 143.637C344.724 142.361 344.414 141.294 343.795 140.438C343.175 139.562 342.191 138.77 340.842 138.059C339.511 137.348 337.779 136.582 335.646 135.762C334.151 135.197 332.784 134.568 331.545 133.875C330.305 133.182 329.23 132.38 328.318 131.469C327.425 130.557 326.723 129.491 326.213 128.27C325.72 127.03 325.474 125.599 325.474 123.977C325.474 121.771 326.021 119.884 327.115 118.316C328.209 116.749 329.731 115.546 331.681 114.707C333.632 113.868 335.892 113.449 338.463 113.449C340.577 113.449 342.555 113.659 344.396 114.078C346.237 114.497 347.987 115.081 349.646 115.828L347.842 120.531C346.292 119.893 344.724 119.374 343.138 118.973C341.571 118.572 339.957 118.371 338.299 118.371C336.767 118.371 335.473 118.599 334.416 119.055C333.377 119.51 332.575 120.158 332.01 120.996C331.463 121.816 331.189 122.792 331.189 123.922C331.189 125.198 331.481 126.264 332.064 127.121C332.648 127.96 333.559 128.725 334.799 129.418C336.056 130.111 337.697 130.849 339.72 131.633C341.981 132.526 343.904 133.465 345.49 134.449C347.076 135.415 348.288 136.6 349.127 138.004C349.965 139.389 350.385 141.13 350.385 143.227ZM386.532 154H380.817V118.945H368.704V114.023H398.618V118.945H386.532V154Z" fill="white"/>
<defs>
<linearGradient id="paint0_linear_7_2" x1="-7.39917e-07" y1="132" x2="445" y2="132" gradientUnits="userSpaceOnUse">
<stop stop-color="#4FDBE4"/>
<stop offset="1" stop-color="#2D96B7"/>
</linearGradient>
<linearGradient id="paint1_linear_7_2" x1="104" y1="293.936" x2="342" y2="293.936" gradientUnits="userSpaceOnUse">
<stop stop-color="#4ED5DE"/>
<stop offset="1" stop-color="#2D96B7"/>
</linearGradient>
</defs>
</svg>
