<svg width="700" height="700" viewBox="0 0 700 700" fill="none" xmlns="http://www.w3.org/2000/svg">
<path d="M123.486 75.8821L164.863 114.54L165.002 142.917L301.615 361.771L266.195 378.392L139.667 157.728L112.135 152.409L99.3629 89.9645L123.486 75.8821Z" fill="#51D9CE"/>
<rect x="214.5" y="372.215" width="122.347" height="302.04" rx="24" transform="rotate(-31 214.5 372.215)" fill="#51D9CE"/>
<path d="M453.911 493.956C414.027 493.956 383.583 482.864 362.579 460.68C341.811 438.496 331.427 406.99 331.427 366.162C331.427 345.866 334.613 327.812 340.985 312C347.357 295.952 356.089 282.5 367.181 271.644C378.273 260.552 391.489 252.174 406.829 246.51C422.169 240.846 438.807 238.014 456.743 238.014C467.127 238.014 476.567 238.84 485.063 240.492C493.559 241.908 500.993 243.678 507.365 245.802C513.737 247.69 519.047 249.696 523.295 251.82C527.543 253.944 530.611 255.596 532.499 256.776L516.569 301.38C509.017 297.368 500.167 293.946 490.019 291.114C480.107 288.282 468.779 286.866 456.035 286.866C447.539 286.866 439.161 288.282 430.901 291.114C422.877 293.946 415.679 298.548 409.307 304.92C403.171 311.056 398.215 319.08 394.439 328.992C390.663 338.904 388.775 350.94 388.775 365.1C388.775 376.428 389.955 387.048 392.315 396.96C394.911 406.636 398.923 415.014 404.351 422.094C410.015 429.174 417.331 434.838 426.299 439.086C435.267 443.098 446.123 445.104 458.867 445.104C466.891 445.104 474.089 444.632 480.461 443.688C486.833 442.744 492.497 441.682 497.453 440.502C502.409 439.086 506.775 437.552 510.551 435.9C514.327 434.248 517.749 432.714 520.817 431.298L536.039 475.548C528.251 480.268 517.277 484.516 503.117 488.292C488.957 492.068 472.555 493.956 453.911 493.956Z" fill="#3EC0DC"/>
</svg>
